<svg width="439" height="513" viewBox="0 0 439 513" fill="none" xmlns="http://www.w3.org/2000/svg">
<path d="M393.143 130.076C401.092 130.076 411.486 141.698 410.875 148.427V186.964C429.54 219.257 439 253.414 439 293.4C439 414.682 340.726 513 219.5 513C98.2735 513 0 414.682 0 293.4C0 256.112 9.28986 220.995 25.6797 190.239V154.544C22.8566 139.333 34.5916 127.917 51.3593 128.853C51.3593 128.853 385.195 130.076 393.143 130.076Z" fill="#F1AC48"/>
<path d="M34.4115 136.433C39.2254 131.659 46.5193 128.996 55.0362 129.465H55.0911C55.1316 129.465 55.1926 129.466 55.2727 129.466C55.4331 129.467 55.6724 129.467 55.988 129.469C56.6199 129.471 57.5577 129.474 58.7812 129.478C61.2282 129.487 64.8184 129.501 69.3903 129.518C78.5341 129.551 91.6057 129.599 107.316 129.656C138.738 129.771 180.715 129.924 222.942 130.077C283.569 130.296 344.706 130.51 375.847 130.617C394.257 163.364 404.76 201.157 404.76 241.405C404.76 366.403 303.476 467.734 178.535 467.734C128.701 467.734 82.6311 451.613 45.2499 424.299C18.7164 387.924 3.05724 343.103 3.0571 294.624C3.0571 257.288 12.3458 222.121 28.7368 191.31V155.816C27.3141 148.046 29.598 141.207 34.4115 136.433Z" fill="#FDC75D"/>
<path d="M324.664 115.395H160.804L184.649 7.12454C187.679 2.28351 190.441 0.882583 197.489 1.00755L340.561 31.5925C346.514 35.0838 348.075 38.1109 347.287 45.6616L333.224 108.055C330.881 112.52 328.961 114.055 324.664 115.395Z" fill="#456854"/>
<path d="M196.266 58.5073L182.203 115.395H217.666C230.506 92.7625 256.797 90.9274 270.248 115.395H309.379L314.882 89.0923C296.277 75.9065 293.668 66.589 294.093 48.7201L228.671 34.0393C219.115 50.2255 211.974 55.4889 196.266 58.5073Z" fill="#8FAB7C"/>
<path d="M324.664 115.395H160.804L184.649 7.12454C187.679 2.28351 190.441 0.882583 197.489 1.00755L340.561 31.5925C346.514 35.0838 348.075 38.1109 347.287 45.6616L333.224 108.055C330.881 112.52 328.961 114.055 324.664 115.395Z" stroke="#15332F" stroke-linejoin="round"/>
<path d="M196.266 58.5073L182.203 115.395H217.666C230.506 92.7625 256.797 90.9274 270.248 115.395H309.379L314.882 89.0923C296.277 75.9065 293.668 66.589 294.093 48.7201L228.671 34.0393C219.115 50.2255 211.974 55.4889 196.266 58.5073Z" stroke="#15332F" stroke-linejoin="round"/>
<path d="M174.255 337.435C187.233 355.143 197.219 358.384 216.443 360.679C238.48 359.81 248.739 355.381 261.688 337.435C265.612 329.298 280.397 334.321 276.974 344.775C259.901 369.953 246.541 377.321 216.443 377.195C189.052 375.506 174.998 371.248 159.581 344.775C154.369 332.844 171.747 331.713 174.255 337.435Z" fill="#263850"/>
<ellipse cx="144.907" cy="266.485" rx="22.6226" ry="27.5265" fill="#263850"/>
<ellipse cx="290.425" cy="266.485" rx="22.6226" ry="27.5265" fill="#263850"/>
<rect x="149.687" y="156.268" width="24.6797" height="12.4574" rx="6.22869" fill="#D27F38" stroke="#C37634"/>
<rect x="111.779" y="156.268" width="24.6797" height="12.4574" rx="6.22869" fill="#D27F38" stroke="#C37634"/>
<rect x="73.8705" y="156.268" width="24.6797" height="12.4574" rx="6.22869" fill="#D27F38" stroke="#C37634"/>
<rect x="35.9624" y="156.268" width="24.6797" height="12.4574" rx="6.22869" fill="#D27F38" stroke="#C37634"/>
<rect x="187.595" y="156.268" width="24.6797" height="12.4574" rx="6.22869" fill="#D27F38" stroke="#C37634"/>
<rect x="225.503" y="156.268" width="24.6797" height="12.4574" rx="6.22869" fill="#D27F38" stroke="#C37634"/>
<rect x="263.411" y="156.268" width="24.6797" height="12.4574" rx="6.22869" fill="#D27F38" stroke="#C37634"/>
<rect x="301.319" y="156.268" width="24.6797" height="12.4574" rx="6.22869" fill="#D27F38" stroke="#C37634"/>
<rect x="339.227" y="156.268" width="24.6797" height="12.4574" rx="6.22869" fill="#D27F38" stroke="#C37634"/>
<rect x="377.135" y="156.268" width="24.6797" height="12.4574" rx="6.22869" fill="#D27F38" stroke="#C37634"/>
<path d="M146.326 115.635L161.033 42.068C161.21 41.1834 160.401 40.418 159.528 40.6435L85.7323 59.6963C85.6436 59.7192 85.5566 59.7524 85.4754 59.7949C82.3369 61.4376 81.1096 62.8764 80.1531 66.2547C80.115 66.3892 80.0998 66.509 80.1102 66.6483C80.3341 69.6531 83.1532 107.516 83.1532 109.278C83.1532 111.113 88.656 116.619 89.8788 116.619H145.161C145.744 116.619 146.212 116.207 146.326 115.635Z" fill="#44726C"/>
<path d="M127.787 76.2466L155.912 68.2945L145.518 116.619H104.553V109.89C120.307 104.687 125.345 97.2662 127.787 76.2466Z" fill="#86B193"/>
<path d="M159.59 40.8858C160.285 40.7066 160.928 41.3147 160.788 42.0186L155.567 68.1319L127.719 76.0059C127.646 76.0266 127.588 76.0792 127.558 76.1466L127.539 76.2179C126.319 86.7197 124.453 93.7775 120.956 98.8575C117.465 103.927 112.326 107.059 104.474 109.652C104.372 109.686 104.303 109.782 104.303 109.89V116.369H89.8785C89.7976 116.369 89.6288 116.315 89.3638 116.162C89.111 116.017 88.806 115.802 88.4673 115.534C87.7907 114.998 86.9971 114.261 86.2388 113.464C85.4805 112.667 84.7632 111.818 84.2379 111.058C83.9751 110.677 83.7637 110.324 83.6187 110.015C83.4714 109.7 83.4029 109.453 83.4029 109.278C83.4029 108.385 82.6974 98.4628 81.9654 88.4112C81.2327 78.3499 80.472 68.1333 80.3599 66.63C80.352 66.5237 80.3629 66.4327 80.3941 66.3224C80.8674 64.6507 81.4004 63.4832 82.188 62.5333C82.9764 61.5825 84.0354 60.8311 85.5914 60.0167C85.6551 59.9833 85.7241 59.9568 85.7945 59.9386L159.59 40.8858ZM153.932 76.3058L145.319 116.355C145.268 116.363 145.215 116.369 145.161 116.369H104.803V110.068C112.61 107.469 117.816 104.299 121.368 99.1407C124.919 93.9821 126.793 86.8684 128.015 76.4415L155.457 68.6827L153.932 76.3058ZM146.081 115.586C146.051 115.733 145.991 115.863 145.912 115.976L147.199 109.989L146.081 115.586Z" stroke="#214655" stroke-opacity="0.8" stroke-width="0.5" stroke-linejoin="round"/>
</svg>
