<svg width="512" height="512" viewBox="0 0 512 512" fill="none" xmlns="http://www.w3.org/2000/svg">
<rect width="512" height="512" rx="115" fill="#26384E"/>
<path d="M398.5 144.506C405 144.506 413.5 154.006 413 159.506V191.006C428.264 217.402 436 245.322 436 278.006C436 377.141 355.635 457.506 256.5 457.506C157.365 457.506 77 377.141 77 278.006C77 247.527 84.5969 218.823 98 193.683V164.506C95.6914 152.073 105.288 142.741 119 143.506C119 143.506 392 144.506 398.5 144.506Z" fill="#F1AC48"/>
<path d="M105.141 149.702C109.077 145.8 115.042 143.623 122.007 144.007H122.052C122.085 144.007 122.135 144.007 122.2 144.008C122.331 144.008 122.527 144.009 122.785 144.01C123.302 144.012 124.069 144.014 125.069 144.017C127.07 144.025 130.006 144.036 133.745 144.05C141.223 144.077 151.912 144.116 164.76 144.163C190.455 144.257 224.783 144.382 259.314 144.507C308.893 144.686 358.889 144.861 384.355 144.948C399.411 171.716 408 202.607 408 235.506C408 337.678 325.173 420.506 223 420.506C182.247 420.506 144.573 407.328 114.004 385.003C92.3057 355.27 79.5001 318.634 79.5 279.007C79.5 248.488 87.096 219.743 100.5 194.558V165.546C99.3366 159.195 101.204 153.604 105.141 149.702Z" fill="#FDC75D"/>
<path d="M342.5 132.506H208.5L228 44.0062C230.478 40.0491 232.737 38.904 238.5 39.0062L355.5 64.0062C360.368 66.8599 361.644 69.3342 361 75.5062L349.5 126.506C347.584 130.156 346.014 131.411 342.5 132.506Z" fill="#456854"/>
<path d="M237.5 86.0062L226 132.506H255C265.5 114.006 287 112.506 298 132.506H330L334.5 111.006C319.286 100.228 317.152 92.6121 317.5 78.0062L264 66.0062C256.185 79.2367 250.346 83.5389 237.5 86.0062Z" fill="#8FAB7C"/>
<path d="M342.5 132.506H208.5L228 44.0062C230.478 40.0491 232.737 38.904 238.5 39.0062L355.5 64.0062C360.368 66.8599 361.644 69.3342 361 75.5062L349.5 126.506C347.584 130.156 346.014 131.411 342.5 132.506Z" stroke="#15332F" stroke-linejoin="round"/>
<path d="M237.5 86.0062L226 132.506H255C265.5 114.006 287 112.506 298 132.506H330L334.5 111.006C319.286 100.228 317.152 92.6121 317.5 78.0062L264 66.0062C256.185 79.2367 250.346 83.5389 237.5 86.0062Z" stroke="#15332F" stroke-linejoin="round"/>
<path d="M219.5 314C230.113 328.475 238.28 331.124 254 333C272.022 332.289 280.41 328.669 291 314C294.209 307.349 306.3 311.455 303.5 320C289.539 340.58 278.613 346.603 254 346.5C231.6 345.119 220.108 341.639 207.5 320C203.238 310.248 217.449 309.323 219.5 314Z" fill="#263850"/>
<ellipse cx="195.5" cy="256.006" rx="18.5" ry="22.5" fill="#263850"/>
<ellipse cx="314.5" cy="256.006" rx="18.5" ry="22.5" fill="#263850"/>
<rect x="199.5" y="166.006" width="20" height="10" rx="5" fill="#D27F38" stroke="#C37634"/>
<rect x="168.5" y="166.006" width="20" height="10" rx="5" fill="#D27F38" stroke="#C37634"/>
<rect x="137.5" y="166.006" width="20" height="10" rx="5" fill="#D27F38" stroke="#C37634"/>
<rect x="106.5" y="166.006" width="20" height="10" rx="5" fill="#D27F38" stroke="#C37634"/>
<rect x="230.5" y="166.006" width="20" height="10" rx="5" fill="#D27F38" stroke="#C37634"/>
<rect x="261.5" y="166.006" width="20" height="10" rx="5" fill="#D27F38" stroke="#C37634"/>
<rect x="292.5" y="166.006" width="20" height="10" rx="5" fill="#D27F38" stroke="#C37634"/>
<rect x="323.5" y="166.006" width="20" height="10" rx="5" fill="#D27F38" stroke="#C37634"/>
<rect x="354.5" y="166.006" width="20" height="10" rx="5" fill="#D27F38" stroke="#C37634"/>
<rect x="385.5" y="166.006" width="20" height="10" rx="5" fill="#D27F38" stroke="#C37634"/>
<path d="M196.661 132.702L208.687 72.5687C208.832 71.8457 208.171 71.2201 207.457 71.4043L147.109 86.978C147.037 86.9967 146.965 87.0239 146.899 87.0586C144.332 88.4014 143.329 89.5774 142.547 92.3388C142.515 92.4487 142.503 92.5467 142.512 92.6606C142.695 95.1167 145 126.066 145 127.506C145 129.006 149.5 133.506 150.5 133.506H195.708C196.185 133.506 196.567 133.17 196.661 132.702Z" fill="#44726C"/>
<path d="M181.5 100.506L204.5 94.0062L196 133.506H162.5V128.006C175.383 123.753 179.503 117.687 181.5 100.506Z" fill="#86B193"/>
<path d="M207.52 71.6462C208.055 71.5082 208.551 71.9772 208.443 72.5192L204.178 93.8366L181.432 100.265C181.359 100.286 181.3 100.339 181.271 100.406L181.252 100.477C180.255 109.06 178.73 114.82 175.876 118.963C173.03 123.095 168.838 125.651 162.422 127.769C162.32 127.803 162.25 127.899 162.25 128.007V133.257H150.5C150.447 133.257 150.318 133.218 150.102 133.093C149.898 132.976 149.65 132.802 149.374 132.584C148.823 132.147 148.175 131.546 147.556 130.896C146.937 130.246 146.352 129.553 145.924 128.934C145.71 128.625 145.539 128.338 145.422 128.089C145.303 127.834 145.25 127.639 145.25 127.507C145.25 126.774 144.672 118.66 144.073 110.446C143.474 102.222 142.853 93.8713 142.761 92.6423C142.755 92.5615 142.763 92.4927 142.787 92.4069C143.173 91.0435 143.608 90.0956 144.246 89.3259C144.885 88.5556 145.745 87.9443 147.015 87.28C147.064 87.2543 147.118 87.2344 147.172 87.2204L207.52 71.6462ZM202.829 100.581L195.8 133.248C195.77 133.252 195.739 133.257 195.708 133.257H162.75V128.184C169.121 126.06 173.381 123.467 176.288 119.246C179.196 115.025 180.728 109.209 181.728 100.701L204.068 94.3874L202.829 100.581Z" stroke="#214655" stroke-opacity="0.8" stroke-width="0.5" stroke-linejoin="round"/>
</svg>
